<mxfile host="app.diagrams.net" agent="Mozilla/5.0 (Windows NT 10.0; Win64; x64) AppleWebKit/537.36 (KHTML, like Gecko) Chrome/131.0.0.0 Safari/537.36" version="25.0.1">
  <diagram name="第 1 页" id="J5ImZjePr7-Z2cBgEEt4">
    <mxGraphModel dx="1434" dy="1915" grid="1" gridSize="10" guides="1" tooltips="1" connect="1" arrows="1" fold="1" page="1" pageScale="1" pageWidth="827" pageHeight="1169" math="0" shadow="0">
      <root>
        <mxCell id="0" />
        <mxCell id="1" parent="0" />
        <mxCell id="LjnxOZAXyOkC-iWtyWfS-1" value="" style="rounded=0;whiteSpace=wrap;html=1;" parent="1" vertex="1">
          <mxGeometry x="440" y="160" width="150" height="410" as="geometry" />
        </mxCell>
        <mxCell id="LjnxOZAXyOkC-iWtyWfS-2" value="" style="rounded=0;whiteSpace=wrap;html=1;" parent="1" vertex="1">
          <mxGeometry x="610" y="350" width="100" height="200" as="geometry" />
        </mxCell>
        <mxCell id="LjnxOZAXyOkC-iWtyWfS-3" value="" style="rounded=0;whiteSpace=wrap;html=1;direction=west;" parent="1" vertex="1">
          <mxGeometry x="470" y="160" width="120" height="60" as="geometry" />
        </mxCell>
        <mxCell id="LjnxOZAXyOkC-iWtyWfS-4" value="" style="rounded=0;whiteSpace=wrap;html=1;" parent="1" vertex="1">
          <mxGeometry x="480" y="350" width="70" height="130" as="geometry" />
        </mxCell>
        <mxCell id="LjnxOZAXyOkC-iWtyWfS-5" value="" style="rounded=0;whiteSpace=wrap;html=1;" parent="1" vertex="1">
          <mxGeometry x="550" y="300" width="40" height="180" as="geometry" />
        </mxCell>
        <mxCell id="LjnxOZAXyOkC-iWtyWfS-7" value="" style="verticalLabelPosition=bottom;verticalAlign=top;html=1;shape=mxgraph.basic.frame;dx=10;whiteSpace=wrap;" parent="1" vertex="1">
          <mxGeometry x="200" y="-40" width="180" height="80" as="geometry" />
        </mxCell>
        <mxCell id="LjnxOZAXyOkC-iWtyWfS-11" value="" style="rounded=0;whiteSpace=wrap;html=1;" parent="1" vertex="1">
          <mxGeometry x="440" y="480" width="150" height="80" as="geometry" />
        </mxCell>
        <mxCell id="LjnxOZAXyOkC-iWtyWfS-12" value="" style="rounded=0;whiteSpace=wrap;html=1;" parent="1" vertex="1">
          <mxGeometry x="330" y="160" width="110" height="410" as="geometry" />
        </mxCell>
      </root>
    </mxGraphModel>
  </diagram>
</mxfile>
